<svg xmlns="http://www.w3.org/2000/svg" xmlns:xlink="http://www.w3.org/1999/xlink" width="500" zoomAndPan="magnify" viewBox="0 0 375 374.999991" height="500" preserveAspectRatio="xMidYMid meet" version="1.0"><defs><g/><clipPath id="43700b39b9"><path d="M 37.5 37.5 L 337.5 37.5 L 337.5 337.5 L 37.5 337.5 Z M 37.5 37.5 " clip-rule="nonzero"/></clipPath><clipPath id="15d5fcc500"><path d="M 187.5 37.5 C 104.65625 37.5 37.5 104.65625 37.5 187.5 C 37.5 270.34375 104.65625 337.5 187.5 337.5 C 270.34375 337.5 337.5 270.34375 337.5 187.5 C 337.5 104.65625 270.34375 37.5 187.5 37.5 Z M 187.5 37.5 " clip-rule="nonzero"/></clipPath><clipPath id="4406ba6c0e"><path d="M 160.546875 72.757812 L 214.453125 72.757812 L 214.453125 86.070312 L 160.546875 86.070312 Z M 160.546875 72.757812 " clip-rule="nonzero"/></clipPath></defs><g clip-path="url(#43700b39b9)"><g clip-path="url(#15d5fcc500)"><path fill="#ffffff" d="M 37.5 37.5 L 337.5 37.5 L 337.5 337.5 L 37.5 337.5 Z M 37.5 37.5 " fill-opacity="1" fill-rule="nonzero"/></g></g><g fill="#272727" fill-opacity="1"><g transform="translate(80.611178, 239.400325)"><g><path d="M 83.140625 -107.515625 C 88.554688 -107.515625 93.53125 -106.394531 98.0625 -104.15625 C 102.59375 -101.914062 106.1875 -98.765625 108.84375 -94.703125 C 111.5 -90.640625 112.828125 -86.109375 112.828125 -81.109375 C 112.828125 -67.867188 106.835938 -59.53125 94.859375 -56.09375 L 94.859375 -55.46875 C 108.503906 -52.34375 115.328125 -43.382812 115.328125 -28.59375 C 115.328125 -22.96875 113.945312 -17.992188 111.1875 -13.671875 C 108.425781 -9.347656 104.648438 -5.988281 99.859375 -3.59375 C 95.066406 -1.195312 89.804688 0 84.078125 0 L 11.5625 0 L 11.5625 -107.515625 Z M 46.09375 -65.625 L 69.84375 -65.625 C 72.132812 -65.625 74.035156 -66.429688 75.546875 -68.046875 C 77.066406 -69.660156 77.828125 -71.664062 77.828125 -74.0625 L 77.828125 -75.625 C 77.828125 -77.925781 77.039062 -79.882812 75.46875 -81.5 C 73.90625 -83.113281 72.03125 -83.921875 69.84375 -83.921875 L 46.09375 -83.921875 Z M 46.09375 -25 L 72.34375 -25 C 74.632812 -25 76.535156 -25.804688 78.046875 -27.421875 C 79.566406 -29.035156 80.328125 -31.039062 80.328125 -33.4375 L 80.328125 -35 C 80.328125 -37.394531 79.566406 -39.398438 78.046875 -41.015625 C 76.535156 -42.628906 74.632812 -43.4375 72.34375 -43.4375 L 46.09375 -43.4375 Z M 46.09375 -25 "/></g></g></g><path stroke-linecap="butt" transform="matrix(0.494289, 0, 0, 0.494289, 119.961465, 78.262113)" fill="none" stroke-linejoin="miter" d="M 264.322732 164.147545 L 264.322732 325.996182 L 194.47809 325.996182 L 194.47809 164.147545 L 123.005479 164.147545 L 123.005479 108.49627 L 335.487135 108.49627 L 335.487135 164.147545 Z M 264.322732 164.147545 " stroke="#272727" stroke-width="45.050236" stroke-opacity="1" stroke-miterlimit="4"/><g fill="#272727" fill-opacity="1"><g transform="translate(177.175415, 239.400325)"><g><path d="M 73.4375 -80.015625 L 73.4375 0 L 38.90625 0 L 38.90625 -80.015625 L 3.59375 -80.015625 L 3.59375 -107.515625 L 108.609375 -107.515625 L 108.609375 -80.015625 Z M 73.4375 -80.015625 "/></g></g></g><g clip-path="url(#4406ba6c0e)"><path fill="#272727" d="M 160.546875 72.757812 L 214.472656 72.757812 L 214.472656 86.070312 L 160.546875 86.070312 Z M 160.546875 72.757812 " fill-opacity="1" fill-rule="nonzero"/></g><g fill="#272727" fill-opacity="1"><g transform="translate(120.320044, 273.963673)"><g><path d="M 0.875 -11.96875 L 4.59375 -11.96875 C 5.707031 -11.96875 6.597656 -11.726562 7.265625 -11.25 C 7.941406 -10.769531 8.28125 -9.992188 8.28125 -8.921875 C 8.28125 -7.722656 7.78125 -6.867188 6.78125 -6.359375 C 8.476562 -6.054688 9.328125 -5.050781 9.328125 -3.34375 C 9.328125 -2.332031 8.976562 -1.519531 8.28125 -0.90625 C 7.59375 -0.300781 6.640625 0 5.421875 0 L 0.875 0 Z M 3.59375 -7.28125 L 3.8125 -7.28125 C 4.425781 -7.28125 4.878906 -7.382812 5.171875 -7.59375 C 5.472656 -7.8125 5.625 -8.164062 5.625 -8.65625 C 5.625 -9.46875 5.019531 -9.875 3.8125 -9.875 L 3.59375 -9.875 Z M 3.59375 -2.109375 L 4.453125 -2.109375 C 5.785156 -2.109375 6.453125 -2.550781 6.453125 -3.4375 C 6.453125 -3.96875 6.285156 -4.347656 5.953125 -4.578125 C 5.617188 -4.816406 5.117188 -4.9375 4.453125 -4.9375 L 3.59375 -4.9375 Z M 3.59375 -2.109375 "/></g></g></g><g fill="#272727" fill-opacity="1"><g transform="translate(130.934076, 273.963673)"><g><path d="M 10.078125 -11.96875 L 10.078125 -4.25 C 10.078125 -2.78125 9.675781 -1.664062 8.875 -0.90625 C 8.082031 -0.15625 6.921875 0.21875 5.390625 0.21875 C 3.867188 0.21875 2.707031 -0.15625 1.90625 -0.90625 C 1.113281 -1.664062 0.71875 -2.78125 0.71875 -4.25 L 0.71875 -11.96875 L 3.453125 -11.96875 L 3.453125 -5.046875 C 3.453125 -4.078125 3.601562 -3.40625 3.90625 -3.03125 C 4.21875 -2.65625 4.71875 -2.46875 5.40625 -2.46875 C 6.09375 -2.46875 6.585938 -2.65625 6.890625 -3.03125 C 7.191406 -3.40625 7.34375 -4.078125 7.34375 -5.046875 L 7.34375 -11.96875 Z M 10.078125 -11.96875 "/></g></g></g><g fill="#272727" fill-opacity="1"><g transform="translate(142.680628, 273.963673)"><g><path d="M 0.875 -11.96875 L 4.34375 -11.96875 C 6.007812 -11.96875 7.429688 -11.398438 8.609375 -10.265625 C 9.785156 -9.128906 10.375 -7.707031 10.375 -6 C 10.375 -4.269531 9.785156 -2.835938 8.609375 -1.703125 C 7.429688 -0.566406 6.007812 0 4.34375 0 L 0.875 0 Z M 3.59375 -2.4375 L 4.015625 -2.4375 C 5.015625 -2.4375 5.832031 -2.769531 6.46875 -3.4375 C 7.101562 -4.113281 7.425781 -4.960938 7.4375 -5.984375 C 7.4375 -6.992188 7.117188 -7.835938 6.484375 -8.515625 C 5.847656 -9.191406 5.023438 -9.53125 4.015625 -9.53125 L 3.59375 -9.53125 Z M 3.59375 -2.4375 "/></g></g></g><g fill="#272727" fill-opacity="1"><g transform="translate(154.340065, 273.963673)"><g><path d="M 11.703125 -6.703125 L 11.703125 -4.109375 C 11.390625 -2.679688 10.707031 -1.601562 9.65625 -0.875 C 8.613281 -0.144531 7.453125 0.21875 6.171875 0.21875 C 4.554688 0.21875 3.175781 -0.382812 2.03125 -1.59375 C 0.894531 -2.800781 0.328125 -4.265625 0.328125 -5.984375 C 0.328125 -7.722656 0.882812 -9.191406 2 -10.390625 C 3.113281 -11.585938 4.503906 -12.1875 6.171875 -12.1875 C 8.117188 -12.1875 9.65625 -11.503906 10.78125 -10.140625 L 9 -8.1875 C 8.363281 -9.207031 7.472656 -9.71875 6.328125 -9.71875 C 5.484375 -9.71875 4.765625 -9.351562 4.171875 -8.625 C 3.578125 -7.894531 3.28125 -7.015625 3.28125 -5.984375 C 3.28125 -4.960938 3.578125 -4.09375 4.171875 -3.375 C 4.765625 -2.65625 5.484375 -2.296875 6.328125 -2.296875 C 7.023438 -2.296875 7.628906 -2.503906 8.140625 -2.921875 C 8.660156 -3.347656 8.921875 -3.90625 8.921875 -4.59375 L 6.171875 -4.59375 L 6.171875 -6.703125 Z M 11.703125 -6.703125 "/></g></g></g><g fill="#272727" fill-opacity="1"><g transform="translate(167.320783, 273.963673)"><g><path d="M 7.71875 -11.96875 L 7.71875 -9.578125 L 3.59375 -9.578125 L 3.59375 -7.203125 L 7.546875 -7.203125 L 7.546875 -4.796875 L 3.59375 -4.796875 L 3.59375 -2.390625 L 7.71875 -2.390625 L 7.71875 0 L 0.875 0 L 0.875 -11.96875 Z M 7.71875 -11.96875 "/></g></g></g><g fill="#272727" fill-opacity="1"><g transform="translate(176.686141, 273.963673)"><g><path d="M 0.109375 -9.578125 L 0.109375 -11.96875 L 8.53125 -11.96875 L 8.53125 -9.578125 L 5.6875 -9.578125 L 5.6875 0 L 2.96875 0 L 2.96875 -9.578125 Z M 0.109375 -9.578125 "/></g></g></g><g fill="#272727" fill-opacity="1"><g transform="translate(186.283813, 273.963673)"><g/></g></g><g fill="#272727" fill-opacity="1"><g transform="translate(191.191675, 273.963673)"><g><path d="M 0.109375 -9.578125 L 0.109375 -11.96875 L 8.53125 -11.96875 L 8.53125 -9.578125 L 5.6875 -9.578125 L 5.6875 0 L 2.96875 0 L 2.96875 -9.578125 Z M 0.109375 -9.578125 "/></g></g></g><g fill="#272727" fill-opacity="1"><g transform="translate(200.789348, 273.963673)"><g><path d="M 0.875 -11.96875 L 5.15625 -11.96875 C 6.300781 -11.96875 7.238281 -11.660156 7.96875 -11.046875 C 8.695312 -10.429688 9.0625 -9.554688 9.0625 -8.421875 C 9.0625 -7.535156 8.835938 -6.796875 8.390625 -6.203125 C 7.953125 -5.609375 7.359375 -5.191406 6.609375 -4.953125 L 10.734375 0 L 7.265625 0 L 3.59375 -4.734375 L 3.59375 0 L 0.875 0 Z M 3.59375 -6.65625 L 3.921875 -6.65625 C 4.171875 -6.65625 4.378906 -6.660156 4.546875 -6.671875 C 4.722656 -6.679688 4.921875 -6.710938 5.140625 -6.765625 C 5.367188 -6.828125 5.550781 -6.910156 5.6875 -7.015625 C 5.820312 -7.128906 5.9375 -7.285156 6.03125 -7.484375 C 6.132812 -7.691406 6.1875 -7.941406 6.1875 -8.234375 C 6.1875 -8.523438 6.132812 -8.769531 6.03125 -8.96875 C 5.9375 -9.175781 5.820312 -9.332031 5.6875 -9.4375 C 5.550781 -9.539062 5.367188 -9.617188 5.140625 -9.671875 C 4.921875 -9.734375 4.722656 -9.769531 4.546875 -9.78125 C 4.378906 -9.789062 4.171875 -9.796875 3.921875 -9.796875 L 3.59375 -9.796875 Z M 3.59375 -6.65625 "/></g></g></g><g fill="#272727" fill-opacity="1"><g transform="translate(212.12936, 273.963673)"><g><path d="M 6.953125 -11.96875 L 11.78125 0 L 8.859375 0 L 7.96875 -2.390625 L 3.40625 -2.390625 L 2.53125 0 L -0.40625 0 L 4.421875 -11.96875 Z M 7.046875 -4.796875 L 5.703125 -8.28125 L 5.671875 -8.28125 L 4.34375 -4.796875 Z M 7.046875 -4.796875 "/></g></g></g><g fill="#272727" fill-opacity="1"><g transform="translate(224.456695, 273.963673)"><g><path d="M 7.25 -2.46875 C 7.664062 -2.46875 8.066406 -2.53125 8.453125 -2.65625 C 8.847656 -2.78125 9.132812 -2.898438 9.3125 -3.015625 L 9.59375 -3.203125 L 10.75 -0.890625 C 10.71875 -0.859375 10.664062 -0.816406 10.59375 -0.765625 C 10.53125 -0.722656 10.375 -0.632812 10.125 -0.5 C 9.875 -0.375 9.609375 -0.257812 9.328125 -0.15625 C 9.046875 -0.0625 8.675781 0.0195312 8.21875 0.09375 C 7.769531 0.175781 7.304688 0.21875 6.828125 0.21875 C 5.710938 0.21875 4.65625 -0.0507812 3.65625 -0.59375 C 2.65625 -1.144531 1.847656 -1.898438 1.234375 -2.859375 C 0.628906 -3.816406 0.328125 -4.851562 0.328125 -5.96875 C 0.328125 -6.8125 0.503906 -7.617188 0.859375 -8.390625 C 1.222656 -9.160156 1.703125 -9.820312 2.296875 -10.375 C 2.890625 -10.925781 3.582031 -11.363281 4.375 -11.6875 C 5.175781 -12.019531 5.992188 -12.1875 6.828125 -12.1875 C 7.597656 -12.1875 8.304688 -12.09375 8.953125 -11.90625 C 9.609375 -11.726562 10.070312 -11.546875 10.34375 -11.359375 L 10.75 -11.09375 L 9.59375 -8.765625 C 9.53125 -8.828125 9.429688 -8.894531 9.296875 -8.96875 C 9.160156 -9.050781 8.890625 -9.160156 8.484375 -9.296875 C 8.078125 -9.429688 7.664062 -9.5 7.25 -9.5 C 6.582031 -9.5 5.988281 -9.394531 5.46875 -9.1875 C 4.945312 -8.976562 4.535156 -8.695312 4.234375 -8.34375 C 3.929688 -8 3.695312 -7.625 3.53125 -7.21875 C 3.375 -6.820312 3.296875 -6.414062 3.296875 -6 C 3.296875 -5.082031 3.632812 -4.265625 4.3125 -3.546875 C 5 -2.828125 5.976562 -2.46875 7.25 -2.46875 Z M 7.25 -2.46875 "/></g></g></g><g fill="#272727" fill-opacity="1"><g transform="translate(236.333922, 273.963673)"><g><path d="M 11.765625 0 L 8.015625 0 L 3.59375 -5.078125 L 3.59375 0 L 0.875 0 L 0.875 -11.96875 L 3.59375 -11.96875 L 3.59375 -7.078125 L 7.703125 -11.96875 L 11.015625 -11.96875 L 6.203125 -6.296875 Z M 11.765625 0 "/></g></g></g><g fill="#272727" fill-opacity="1"><g transform="translate(248.704813, 273.963673)"><g><path d="M 7.71875 -11.96875 L 7.71875 -9.578125 L 3.59375 -9.578125 L 3.59375 -7.203125 L 7.546875 -7.203125 L 7.546875 -4.796875 L 3.59375 -4.796875 L 3.59375 -2.390625 L 7.71875 -2.390625 L 7.71875 0 L 0.875 0 L 0.875 -11.96875 Z M 7.71875 -11.96875 "/></g></g></g><g fill="#272727" fill-opacity="1"><g transform="translate(258.070165, 273.963673)"><g><path d="M 0.875 -11.96875 L 5.15625 -11.96875 C 6.300781 -11.96875 7.238281 -11.660156 7.96875 -11.046875 C 8.695312 -10.429688 9.0625 -9.554688 9.0625 -8.421875 C 9.0625 -7.535156 8.835938 -6.796875 8.390625 -6.203125 C 7.953125 -5.609375 7.359375 -5.191406 6.609375 -4.953125 L 10.734375 0 L 7.265625 0 L 3.59375 -4.734375 L 3.59375 0 L 0.875 0 Z M 3.59375 -6.65625 L 3.921875 -6.65625 C 4.171875 -6.65625 4.378906 -6.660156 4.546875 -6.671875 C 4.722656 -6.679688 4.921875 -6.710938 5.140625 -6.765625 C 5.367188 -6.828125 5.550781 -6.910156 5.6875 -7.015625 C 5.820312 -7.128906 5.9375 -7.285156 6.03125 -7.484375 C 6.132812 -7.691406 6.1875 -7.941406 6.1875 -8.234375 C 6.1875 -8.523438 6.132812 -8.769531 6.03125 -8.96875 C 5.9375 -9.175781 5.820312 -9.332031 5.6875 -9.4375 C 5.550781 -9.539062 5.367188 -9.617188 5.140625 -9.671875 C 4.921875 -9.734375 4.722656 -9.769531 4.546875 -9.78125 C 4.378906 -9.789062 4.171875 -9.796875 3.921875 -9.796875 L 3.59375 -9.796875 Z M 3.59375 -6.65625 "/></g></g></g></svg>